<svg width="302" height="61" viewBox="0 0 302 61" fill="none" xmlns="http://www.w3.org/2000/svg">
<path d="M10.5 10.0254V30H7.20508V13.9355L2.32422 15.5898V12.8691L10.1035 10.0254H10.5ZM30.3926 18.3789V21.6328C30.3926 23.1914 30.2376 24.5221 29.9277 25.625C29.627 26.7188 29.1895 27.6074 28.6152 28.291C28.041 28.9746 27.3529 29.4759 26.5508 29.7949C25.7578 30.1139 24.8691 30.2734 23.8848 30.2734C23.1009 30.2734 22.3717 30.1732 21.6973 29.9727C21.0319 29.7721 20.4303 29.4577 19.8926 29.0293C19.3548 28.6009 18.8945 28.0495 18.5117 27.375C18.138 26.6914 17.8464 25.8757 17.6367 24.9277C17.4362 23.9798 17.3359 22.8815 17.3359 21.6328V18.3789C17.3359 16.8112 17.4909 15.4896 17.8008 14.4141C18.1107 13.3294 18.5527 12.4499 19.127 11.7754C19.7012 11.0918 20.3848 10.5951 21.1777 10.2852C21.9798 9.97526 22.873 9.82031 23.8574 9.82031C24.6504 9.82031 25.3796 9.92057 26.0449 10.1211C26.7194 10.3125 27.321 10.6178 27.8496 11.0371C28.3874 11.4564 28.8431 12.0033 29.2168 12.6777C29.5996 13.3431 29.8913 14.1497 30.0918 15.0977C30.2923 16.0365 30.3926 17.1302 30.3926 18.3789ZM27.0977 22.0977V17.8867C27.0977 17.0938 27.0521 16.3965 26.9609 15.7949C26.8698 15.1842 26.7331 14.6693 26.5508 14.25C26.3776 13.8216 26.1589 13.4753 25.8945 13.2109C25.6302 12.9375 25.3294 12.7415 24.9922 12.623C24.6549 12.4954 24.2767 12.4316 23.8574 12.4316C23.347 12.4316 22.8913 12.5319 22.4902 12.7324C22.0892 12.9238 21.752 13.2337 21.4785 13.6621C21.2051 14.0905 20.9954 14.6556 20.8496 15.3574C20.7129 16.0501 20.6445 16.8932 20.6445 17.8867V22.0977C20.6445 22.8997 20.6901 23.6061 20.7812 24.2168C20.8724 24.8275 21.0091 25.3516 21.1914 25.7891C21.3737 26.2174 21.5924 26.5729 21.8477 26.8555C22.112 27.1289 22.4128 27.3294 22.75 27.457C23.0964 27.5846 23.4746 27.6484 23.8848 27.6484C24.4043 27.6484 24.8646 27.5482 25.2656 27.3477C25.6667 27.1471 26.0039 26.8281 26.2773 26.3906C26.5508 25.944 26.7559 25.3652 26.8926 24.6543C27.0293 23.9434 27.0977 23.0911 27.0977 22.0977ZM46.3066 18.3789V21.6328C46.3066 23.1914 46.1517 24.5221 45.8418 25.625C45.541 26.7188 45.1035 27.6074 44.5293 28.291C43.9551 28.9746 43.2669 29.4759 42.4648 29.7949C41.6719 30.1139 40.7832 30.2734 39.7988 30.2734C39.015 30.2734 38.2858 30.1732 37.6113 29.9727C36.946 29.7721 36.3444 29.4577 35.8066 29.0293C35.2689 28.6009 34.8086 28.0495 34.4258 27.375C34.0521 26.6914 33.7604 25.8757 33.5508 24.9277C33.3503 23.9798 33.25 22.8815 33.25 21.6328V18.3789C33.25 16.8112 33.4049 15.4896 33.7148 14.4141C34.0247 13.3294 34.4668 12.4499 35.041 11.7754C35.6152 11.0918 36.2988 10.5951 37.0918 10.2852C37.8939 9.97526 38.7871 9.82031 39.7715 9.82031C40.5645 9.82031 41.2936 9.92057 41.959 10.1211C42.6335 10.3125 43.235 10.6178 43.7637 11.0371C44.3014 11.4564 44.7572 12.0033 45.1309 12.6777C45.5137 13.3431 45.8053 14.1497 46.0059 15.0977C46.2064 16.0365 46.3066 17.1302 46.3066 18.3789ZM43.0117 22.0977V17.8867C43.0117 17.0938 42.9661 16.3965 42.875 15.7949C42.7839 15.1842 42.6471 14.6693 42.4648 14.25C42.2917 13.8216 42.0729 13.4753 41.8086 13.2109C41.5443 12.9375 41.2435 12.7415 40.9062 12.623C40.569 12.4954 40.1908 12.4316 39.7715 12.4316C39.2611 12.4316 38.8053 12.5319 38.4043 12.7324C38.0033 12.9238 37.666 13.2337 37.3926 13.6621C37.1191 14.0905 36.9095 14.6556 36.7637 15.3574C36.627 16.0501 36.5586 16.8932 36.5586 17.8867V22.0977C36.5586 22.8997 36.6042 23.6061 36.6953 24.2168C36.7865 24.8275 36.9232 25.3516 37.1055 25.7891C37.2878 26.2174 37.5065 26.5729 37.7617 26.8555C38.026 27.1289 38.3268 27.3294 38.6641 27.457C39.0104 27.5846 39.3887 27.6484 39.7988 27.6484C40.3184 27.6484 40.7786 27.5482 41.1797 27.3477C41.5807 27.1471 41.918 26.8281 42.1914 26.3906C42.4648 25.944 42.6699 25.3652 42.8066 24.6543C42.9434 23.9434 43.0117 23.0911 43.0117 22.0977ZM53.1973 10.0938V30H49.7656V10.0938H53.1973ZM65.1602 10.0938L57.0938 19.6777L52.5 24.5449L51.8984 21.1406L55.1797 17.0938L60.9766 10.0938H65.1602ZM61.4688 30L54.9199 20.5664L57.2852 18.2285L65.543 30H61.4688Z" fill="white"/>
<path d="M7.83105 45.3359H9.47168L12.5552 53.561L15.6313 45.3359H17.272L13.1997 56H11.896L7.83105 45.3359ZM7.08398 45.3359H8.64404L8.91504 52.4551V56H7.08398V45.3359ZM16.459 45.3359H18.0264V56H16.188V52.4551L16.459 45.3359ZM21.9229 48.0752V56H20.1504V48.0752H21.9229ZM20.0332 45.9951C20.0332 45.7266 20.1211 45.5044 20.2969 45.3286C20.4775 45.1479 20.7266 45.0576 21.0439 45.0576C21.3564 45.0576 21.603 45.1479 21.7837 45.3286C21.9644 45.5044 22.0547 45.7266 22.0547 45.9951C22.0547 46.2588 21.9644 46.4785 21.7837 46.6543C21.603 46.8301 21.3564 46.918 21.0439 46.918C20.7266 46.918 20.4775 46.8301 20.2969 46.6543C20.1211 46.4785 20.0332 46.2588 20.0332 45.9951ZM25.6069 49.7671V56H23.8418V48.0752H25.5044L25.6069 49.7671ZM25.292 51.7446L24.7207 51.7373C24.7256 51.1758 24.8037 50.6606 24.9551 50.1919C25.1113 49.7231 25.3262 49.3203 25.5996 48.9834C25.8779 48.6465 26.21 48.3877 26.5957 48.207C26.9814 48.0215 27.4111 47.9287 27.8848 47.9287C28.2656 47.9287 28.6099 47.9824 28.9175 48.0898C29.23 48.1924 29.4961 48.3608 29.7158 48.5952C29.9404 48.8296 30.1113 49.1348 30.2285 49.5107C30.3457 49.8818 30.4043 50.3384 30.4043 50.8804V56H28.6318V50.873C28.6318 50.4922 28.5757 50.1919 28.4634 49.9722C28.356 49.7476 28.1973 49.5889 27.9873 49.4961C27.7822 49.3984 27.5259 49.3496 27.2183 49.3496C26.9155 49.3496 26.6445 49.4131 26.4053 49.54C26.166 49.667 25.9634 49.8403 25.7974 50.0601C25.6362 50.2798 25.5117 50.5337 25.4238 50.8218C25.3359 51.1099 25.292 51.4175 25.292 51.7446ZM36.9741 54.1323V48.0752H38.7466V56H37.0767L36.9741 54.1323ZM37.2231 52.4844L37.8164 52.4697C37.8164 53.002 37.7578 53.4927 37.6406 53.9419C37.5234 54.3862 37.3428 54.7744 37.0986 55.1064C36.8545 55.4336 36.542 55.6899 36.1611 55.8755C35.7803 56.0562 35.3237 56.1465 34.7915 56.1465C34.4058 56.1465 34.0518 56.0903 33.7295 55.978C33.4072 55.8657 33.1289 55.6924 32.8945 55.458C32.665 55.2236 32.4868 54.9185 32.3599 54.5425C32.2329 54.1665 32.1694 53.7173 32.1694 53.1948V48.0752H33.9346V53.2095C33.9346 53.4976 33.9688 53.7393 34.0371 53.9346C34.1055 54.125 34.1982 54.2788 34.3154 54.396C34.4326 54.5132 34.5693 54.5962 34.7256 54.645C34.8818 54.6938 35.0479 54.7183 35.2236 54.7183C35.7266 54.7183 36.1221 54.6206 36.4102 54.4253C36.7031 54.2251 36.9106 53.9565 37.0327 53.6196C37.1597 53.2827 37.2231 52.9043 37.2231 52.4844ZM44.1885 48.0752V49.3643H39.7207V48.0752H44.1885ZM41.0098 46.1343H42.7749V53.8101C42.7749 54.0542 42.8091 54.2422 42.8774 54.374C42.9507 54.501 43.0508 54.5864 43.1777 54.6304C43.3047 54.6743 43.4536 54.6963 43.6245 54.6963C43.7466 54.6963 43.8638 54.689 43.9761 54.6743C44.0884 54.6597 44.1787 54.645 44.2471 54.6304L44.2544 55.978C44.1079 56.022 43.937 56.061 43.7417 56.0952C43.5513 56.1294 43.3315 56.1465 43.0825 56.1465C42.6772 56.1465 42.3184 56.0757 42.0059 55.9341C41.6934 55.7876 41.4492 55.5508 41.2734 55.2236C41.0977 54.8965 41.0098 54.4619 41.0098 53.9199V46.1343ZM49.0444 56.1465C48.4585 56.1465 47.9287 56.0513 47.4551 55.8608C46.9863 55.6655 46.5859 55.3945 46.2539 55.0479C45.9268 54.7012 45.6753 54.2935 45.4995 53.8247C45.3237 53.356 45.2358 52.8506 45.2358 52.3086V52.0156C45.2358 51.3955 45.3262 50.834 45.5068 50.3311C45.6875 49.8281 45.939 49.3984 46.2612 49.042C46.5835 48.6807 46.9644 48.4048 47.4038 48.2144C47.8433 48.0239 48.3193 47.9287 48.832 47.9287C49.3984 47.9287 49.894 48.0239 50.3188 48.2144C50.7437 48.4048 51.0952 48.6733 51.3735 49.02C51.6567 49.3618 51.8667 49.7695 52.0034 50.2432C52.145 50.7168 52.2158 51.2393 52.2158 51.8105V52.5649H46.0928V51.2979H50.4727V51.1587C50.4629 50.8413 50.3994 50.5435 50.2822 50.2651C50.1699 49.9868 49.9966 49.7622 49.7622 49.5913C49.5278 49.4204 49.2153 49.335 48.8247 49.335C48.5317 49.335 48.2705 49.3984 48.041 49.5254C47.8164 49.6475 47.6284 49.8257 47.4771 50.0601C47.3257 50.2944 47.2085 50.5776 47.1255 50.9097C47.0474 51.2368 47.0083 51.6055 47.0083 52.0156V52.3086C47.0083 52.6553 47.0547 52.9775 47.1475 53.2754C47.2451 53.5684 47.3867 53.8247 47.5723 54.0444C47.7578 54.2642 47.9824 54.4375 48.2461 54.5645C48.5098 54.6865 48.8101 54.7476 49.147 54.7476C49.5718 54.7476 49.9502 54.6621 50.2822 54.4912C50.6143 54.3203 50.9023 54.0786 51.1465 53.7661L52.0767 54.667C51.9058 54.916 51.6836 55.1553 51.4102 55.3848C51.1367 55.6094 50.8022 55.7925 50.4067 55.9341C50.0161 56.0757 49.562 56.1465 49.0444 56.1465ZM58.0386 53.854C58.0386 53.6782 57.9946 53.5195 57.9067 53.3779C57.8188 53.2314 57.6504 53.0996 57.4014 52.9824C57.1572 52.8652 56.7959 52.7578 56.3174 52.6602C55.8975 52.5674 55.5117 52.4575 55.1602 52.3306C54.8135 52.1987 54.5156 52.04 54.2666 51.8545C54.0176 51.6689 53.8247 51.4492 53.688 51.1953C53.5513 50.9414 53.4829 50.6484 53.4829 50.3164C53.4829 49.9941 53.5537 49.689 53.6953 49.4009C53.8369 49.1128 54.0396 48.8589 54.3032 48.6392C54.5669 48.4194 54.8867 48.2461 55.2627 48.1191C55.6436 47.9922 56.0684 47.9287 56.5371 47.9287C57.2012 47.9287 57.77 48.041 58.2437 48.2656C58.7222 48.4854 59.0884 48.7856 59.3423 49.1665C59.5962 49.5425 59.7231 49.9673 59.7231 50.4409H57.958C57.958 50.231 57.9043 50.0356 57.7969 49.855C57.6943 49.6694 57.5381 49.5205 57.3281 49.4082C57.1182 49.291 56.8545 49.2324 56.5371 49.2324C56.2344 49.2324 55.9829 49.2812 55.7827 49.3789C55.5874 49.4717 55.4409 49.5938 55.3433 49.7451C55.2505 49.8965 55.2041 50.0625 55.2041 50.2432C55.2041 50.375 55.2285 50.4946 55.2773 50.6021C55.3311 50.7046 55.4189 50.7998 55.541 50.8877C55.6631 50.9707 55.8291 51.0488 56.0391 51.1221C56.2539 51.1953 56.5225 51.2661 56.8447 51.3345C57.4502 51.4614 57.9702 51.625 58.4048 51.8252C58.8442 52.0205 59.1812 52.2744 59.4155 52.5869C59.6499 52.8945 59.7671 53.2852 59.7671 53.7588C59.7671 54.1104 59.6914 54.4326 59.54 54.7256C59.3936 55.0137 59.1787 55.2651 58.8955 55.48C58.6123 55.6899 58.2729 55.8535 57.8774 55.9707C57.4868 56.0879 57.0474 56.1465 56.5591 56.1465C55.8413 56.1465 55.2334 56.0195 54.7354 55.7656C54.2373 55.5068 53.8589 55.1772 53.6001 54.7769C53.3462 54.3716 53.2192 53.9517 53.2192 53.5171H54.9258C54.9453 53.8442 55.0356 54.1055 55.1968 54.3008C55.3628 54.4912 55.5679 54.6304 55.812 54.7183C56.061 54.8013 56.3174 54.8428 56.5811 54.8428C56.8984 54.8428 57.1646 54.8013 57.3794 54.7183C57.5942 54.6304 57.7578 54.5132 57.8701 54.3667C57.9824 54.2153 58.0386 54.0444 58.0386 53.854Z" fill="white" fill-opacity="0.7"/>
<path d="M128.068 45.3359H129.899V52.4624C129.899 53.2729 129.723 53.9517 129.372 54.4985C129.02 55.0454 128.542 55.458 127.936 55.7363C127.335 56.0098 126.664 56.1465 125.922 56.1465C125.155 56.1465 124.472 56.0098 123.871 55.7363C123.271 55.458 122.797 55.0454 122.45 54.4985C122.108 53.9517 121.938 53.2729 121.938 52.4624V45.3359H123.769V52.4624C123.769 52.9751 123.856 53.3975 124.032 53.7295C124.208 54.0566 124.457 54.2983 124.779 54.4546C125.102 54.6108 125.482 54.689 125.922 54.689C126.361 54.689 126.74 54.6108 127.057 54.4546C127.379 54.2983 127.628 54.0566 127.804 53.7295C127.98 53.3975 128.068 52.9751 128.068 52.4624V45.3359ZM136.168 53.854C136.168 53.6782 136.125 53.5195 136.037 53.3779C135.949 53.2314 135.78 53.0996 135.531 52.9824C135.287 52.8652 134.926 52.7578 134.447 52.6602C134.027 52.5674 133.642 52.4575 133.29 52.3306C132.943 52.1987 132.646 52.04 132.396 51.8545C132.147 51.6689 131.955 51.4492 131.818 51.1953C131.681 50.9414 131.613 50.6484 131.613 50.3164C131.613 49.9941 131.684 49.689 131.825 49.4009C131.967 49.1128 132.169 48.8589 132.433 48.6392C132.697 48.4194 133.017 48.2461 133.393 48.1191C133.773 47.9922 134.198 47.9287 134.667 47.9287C135.331 47.9287 135.9 48.041 136.374 48.2656C136.852 48.4854 137.218 48.7856 137.472 49.1665C137.726 49.5425 137.853 49.9673 137.853 50.4409H136.088C136.088 50.231 136.034 50.0356 135.927 49.855C135.824 49.6694 135.668 49.5205 135.458 49.4082C135.248 49.291 134.984 49.2324 134.667 49.2324C134.364 49.2324 134.113 49.2812 133.913 49.3789C133.717 49.4717 133.571 49.5938 133.473 49.7451C133.38 49.8965 133.334 50.0625 133.334 50.2432C133.334 50.375 133.358 50.4946 133.407 50.6021C133.461 50.7046 133.549 50.7998 133.671 50.8877C133.793 50.9707 133.959 51.0488 134.169 51.1221C134.384 51.1953 134.652 51.2661 134.975 51.3345C135.58 51.4614 136.1 51.625 136.535 51.8252C136.974 52.0205 137.311 52.2744 137.545 52.5869C137.78 52.8945 137.897 53.2852 137.897 53.7588C137.897 54.1104 137.821 54.4326 137.67 54.7256C137.523 55.0137 137.309 55.2651 137.025 55.48C136.742 55.6899 136.403 55.8535 136.007 55.9707C135.617 56.0879 135.177 56.1465 134.689 56.1465C133.971 56.1465 133.363 56.0195 132.865 55.7656C132.367 55.5068 131.989 55.1772 131.73 54.7769C131.476 54.3716 131.349 53.9517 131.349 53.5171H133.056C133.075 53.8442 133.166 54.1055 133.327 54.3008C133.493 54.4912 133.698 54.6304 133.942 54.7183C134.191 54.8013 134.447 54.8428 134.711 54.8428C135.028 54.8428 135.294 54.8013 135.509 54.7183C135.724 54.6304 135.888 54.5132 136 54.3667C136.112 54.2153 136.168 54.0444 136.168 53.854ZM142.936 56.1465C142.35 56.1465 141.82 56.0513 141.347 55.8608C140.878 55.6655 140.478 55.3945 140.146 55.0479C139.818 54.7012 139.567 54.2935 139.391 53.8247C139.215 53.356 139.127 52.8506 139.127 52.3086V52.0156C139.127 51.3955 139.218 50.834 139.398 50.3311C139.579 49.8281 139.831 49.3984 140.153 49.042C140.475 48.6807 140.856 48.4048 141.295 48.2144C141.735 48.0239 142.211 47.9287 142.724 47.9287C143.29 47.9287 143.786 48.0239 144.21 48.2144C144.635 48.4048 144.987 48.6733 145.265 49.02C145.548 49.3618 145.758 49.7695 145.895 50.2432C146.037 50.7168 146.107 51.2393 146.107 51.8105V52.5649H139.984V51.2979H144.364V51.1587C144.354 50.8413 144.291 50.5435 144.174 50.2651C144.062 49.9868 143.888 49.7622 143.654 49.5913C143.419 49.4204 143.107 49.335 142.716 49.335C142.423 49.335 142.162 49.3984 141.933 49.5254C141.708 49.6475 141.52 49.8257 141.369 50.0601C141.217 50.2944 141.1 50.5776 141.017 50.9097C140.939 51.2368 140.9 51.6055 140.9 52.0156V52.3086C140.9 52.6553 140.946 52.9775 141.039 53.2754C141.137 53.5684 141.278 53.8247 141.464 54.0444C141.649 54.2642 141.874 54.4375 142.138 54.5645C142.401 54.6865 142.702 54.7476 143.039 54.7476C143.463 54.7476 143.842 54.6621 144.174 54.4912C144.506 54.3203 144.794 54.0786 145.038 53.7661L145.968 54.667C145.797 54.916 145.575 55.1553 145.302 55.3848C145.028 55.6094 144.694 55.7925 144.298 55.9341C143.908 56.0757 143.454 56.1465 142.936 56.1465ZM149.257 49.584V56H147.492V48.0752H149.176L149.257 49.584ZM151.681 48.0239L151.667 49.6646C151.559 49.645 151.442 49.6304 151.315 49.6206C151.193 49.6108 151.071 49.606 150.949 49.606C150.646 49.606 150.38 49.6499 150.15 49.7378C149.921 49.8208 149.728 49.9429 149.572 50.104C149.42 50.2603 149.303 50.4507 149.22 50.6753C149.137 50.8999 149.088 51.1514 149.074 51.4297L148.671 51.459C148.671 50.9609 148.72 50.4995 148.817 50.0747C148.915 49.6499 149.062 49.2764 149.257 48.9541C149.457 48.6318 149.706 48.3804 150.004 48.1997C150.307 48.019 150.656 47.9287 151.051 47.9287C151.159 47.9287 151.273 47.9385 151.396 47.958C151.522 47.9775 151.618 47.9995 151.681 48.0239ZM157.233 53.854C157.233 53.6782 157.189 53.5195 157.101 53.3779C157.013 53.2314 156.845 53.0996 156.596 52.9824C156.352 52.8652 155.99 52.7578 155.512 52.6602C155.092 52.5674 154.706 52.4575 154.354 52.3306C154.008 52.1987 153.71 52.04 153.461 51.8545C153.212 51.6689 153.019 51.4492 152.882 51.1953C152.746 50.9414 152.677 50.6484 152.677 50.3164C152.677 49.9941 152.748 49.689 152.89 49.4009C153.031 49.1128 153.234 48.8589 153.498 48.6392C153.761 48.4194 154.081 48.2461 154.457 48.1191C154.838 47.9922 155.263 47.9287 155.731 47.9287C156.396 47.9287 156.964 48.041 157.438 48.2656C157.917 48.4854 158.283 48.7856 158.537 49.1665C158.791 49.5425 158.917 49.9673 158.917 50.4409H157.152C157.152 50.231 157.099 50.0356 156.991 49.855C156.889 49.6694 156.732 49.5205 156.522 49.4082C156.312 49.291 156.049 49.2324 155.731 49.2324C155.429 49.2324 155.177 49.2812 154.977 49.3789C154.782 49.4717 154.635 49.5938 154.538 49.7451C154.445 49.8965 154.398 50.0625 154.398 50.2432C154.398 50.375 154.423 50.4946 154.472 50.6021C154.525 50.7046 154.613 50.7998 154.735 50.8877C154.857 50.9707 155.023 51.0488 155.233 51.1221C155.448 51.1953 155.717 51.2661 156.039 51.3345C156.645 51.4614 157.165 51.625 157.599 51.8252C158.039 52.0205 158.375 52.2744 158.61 52.5869C158.844 52.8945 158.961 53.2852 158.961 53.7588C158.961 54.1104 158.886 54.4326 158.734 54.7256C158.588 55.0137 158.373 55.2651 158.09 55.48C157.807 55.6899 157.467 55.8535 157.072 55.9707C156.681 56.0879 156.242 56.1465 155.753 56.1465C155.036 56.1465 154.428 56.0195 153.93 55.7656C153.432 55.5068 153.053 55.1772 152.794 54.7769C152.541 54.3716 152.414 53.9517 152.414 53.5171H154.12C154.14 53.8442 154.23 54.1055 154.391 54.3008C154.557 54.4912 154.762 54.6304 155.006 54.7183C155.255 54.8013 155.512 54.8428 155.775 54.8428C156.093 54.8428 156.359 54.8013 156.574 54.7183C156.789 54.6304 156.952 54.5132 157.064 54.3667C157.177 54.2153 157.233 54.0444 157.233 53.854Z" fill="white" fill-opacity="0.7"/>
<path d="M247.053 53.5171H242.922L242.058 56H240.132L244.16 45.3359H245.823L249.858 56H247.925L247.053 53.5171ZM243.442 52.0229H246.533L244.988 47.5991L243.442 52.0229ZM255.051 49.7012C254.817 49.6621 254.575 49.6426 254.326 49.6426C253.511 49.6426 252.961 49.9551 252.678 50.5801V56H250.898V48.0752H252.598L252.642 48.9614C253.071 48.2729 253.667 47.9287 254.429 47.9287C254.683 47.9287 254.893 47.9629 255.059 48.0312L255.051 49.7012ZM258.772 46.1489V48.0752H260.171V49.3936H258.772V53.8174C258.772 54.1201 258.831 54.3398 258.948 54.4766C259.07 54.6084 259.285 54.6743 259.592 54.6743C259.797 54.6743 260.005 54.6499 260.215 54.6011V55.978C259.81 56.0903 259.419 56.1465 259.043 56.1465C257.676 56.1465 256.992 55.3921 256.992 53.8833V49.3936H255.688V48.0752H256.992V46.1489H258.772ZM263.43 56H261.65V48.0752H263.43V56ZM261.541 46.0171C261.541 45.7437 261.626 45.5166 261.797 45.3359C261.973 45.1553 262.222 45.0649 262.544 45.0649C262.866 45.0649 263.115 45.1553 263.291 45.3359C263.467 45.5166 263.555 45.7437 263.555 46.0171C263.555 46.2856 263.467 46.5103 263.291 46.6909C263.115 46.8667 262.866 46.9546 262.544 46.9546C262.222 46.9546 261.973 46.8667 261.797 46.6909C261.626 46.5103 261.541 46.2856 261.541 46.0171ZM269.817 53.8467C269.817 53.5293 269.685 53.2876 269.421 53.1216C269.163 52.9556 268.73 52.8091 268.125 52.6821C267.52 52.5552 267.014 52.394 266.609 52.1987C265.72 51.769 265.276 51.1465 265.276 50.3311C265.276 49.6475 265.564 49.0762 266.14 48.6172C266.716 48.1582 267.449 47.9287 268.337 47.9287C269.285 47.9287 270.049 48.1631 270.63 48.6318C271.216 49.1006 271.509 49.7085 271.509 50.4556H269.729C269.729 50.1138 269.602 49.8306 269.348 49.606C269.094 49.3765 268.757 49.2617 268.337 49.2617C267.947 49.2617 267.627 49.3521 267.378 49.5327C267.134 49.7134 267.012 49.9551 267.012 50.2578C267.012 50.5312 267.126 50.7437 267.356 50.895C267.585 51.0464 268.049 51.2002 268.748 51.3564C269.446 51.5078 269.993 51.6909 270.388 51.9058C270.789 52.1157 271.084 52.3696 271.274 52.6675C271.47 52.9653 271.567 53.3267 271.567 53.7515C271.567 54.4644 271.272 55.043 270.681 55.4873C270.09 55.9268 269.316 56.1465 268.359 56.1465C267.71 56.1465 267.131 56.0293 266.624 55.7949C266.116 55.5605 265.72 55.2383 265.437 54.8281C265.154 54.418 265.012 53.9761 265.012 53.5024H266.741C266.765 53.9224 266.924 54.2471 267.217 54.4766C267.51 54.7012 267.898 54.8135 268.381 54.8135C268.85 54.8135 269.207 54.7256 269.451 54.5498C269.695 54.3691 269.817 54.1348 269.817 53.8467ZM275.354 46.1489V48.0752H276.753V49.3936H275.354V53.8174C275.354 54.1201 275.413 54.3398 275.53 54.4766C275.652 54.6084 275.867 54.6743 276.174 54.6743C276.379 54.6743 276.587 54.6499 276.797 54.6011V55.978C276.392 56.0903 276.001 56.1465 275.625 56.1465C274.258 56.1465 273.574 55.3921 273.574 53.8833V49.3936H272.271V48.0752H273.574V46.1489H275.354ZM282.561 53.8467C282.561 53.5293 282.429 53.2876 282.166 53.1216C281.907 52.9556 281.475 52.8091 280.869 52.6821C280.264 52.5552 279.758 52.394 279.353 52.1987C278.464 51.769 278.02 51.1465 278.02 50.3311C278.02 49.6475 278.308 49.0762 278.884 48.6172C279.46 48.1582 280.193 47.9287 281.082 47.9287C282.029 47.9287 282.793 48.1631 283.374 48.6318C283.96 49.1006 284.253 49.7085 284.253 50.4556H282.473C282.473 50.1138 282.346 49.8306 282.092 49.606C281.838 49.3765 281.501 49.2617 281.082 49.2617C280.691 49.2617 280.371 49.3521 280.122 49.5327C279.878 49.7134 279.756 49.9551 279.756 50.2578C279.756 50.5312 279.871 50.7437 280.1 50.895C280.33 51.0464 280.793 51.2002 281.492 51.3564C282.19 51.5078 282.737 51.6909 283.132 51.9058C283.533 52.1157 283.828 52.3696 284.019 52.6675C284.214 52.9653 284.312 53.3267 284.312 53.7515C284.312 54.4644 284.016 55.043 283.425 55.4873C282.834 55.9268 282.061 56.1465 281.104 56.1465C280.454 56.1465 279.875 56.0293 279.368 55.7949C278.86 55.5605 278.464 55.2383 278.181 54.8281C277.898 54.418 277.756 53.9761 277.756 53.5024H279.485C279.509 53.9224 279.668 54.2471 279.961 54.4766C280.254 54.7012 280.642 54.8135 281.125 54.8135C281.594 54.8135 281.951 54.7256 282.195 54.5498C282.439 54.3691 282.561 54.1348 282.561 53.8467Z" fill="white" fill-opacity="0.7"/>
<path d="M126.373 18.5566H128.342C129.107 18.5566 129.741 18.4245 130.242 18.1602C130.753 17.8958 131.131 17.5312 131.377 17.0664C131.623 16.6016 131.746 16.0684 131.746 15.4668C131.746 14.8379 131.632 14.3001 131.404 13.8535C131.186 13.3978 130.848 13.0469 130.393 12.8008C129.946 12.5547 129.376 12.4316 128.684 12.4316C128.1 12.4316 127.572 12.5501 127.098 12.7871C126.633 13.015 126.264 13.3431 125.99 13.7715C125.717 14.1908 125.58 14.6921 125.58 15.2754H122.271C122.271 14.2181 122.549 13.2793 123.105 12.459C123.661 11.6387 124.418 10.9961 125.375 10.5312C126.341 10.0573 127.426 9.82031 128.629 9.82031C129.914 9.82031 131.035 10.0345 131.992 10.4629C132.958 10.8822 133.71 11.5111 134.248 12.3496C134.786 13.1882 135.055 14.2272 135.055 15.4668C135.055 16.0319 134.923 16.6061 134.658 17.1895C134.394 17.7728 134.002 18.306 133.482 18.7891C132.963 19.263 132.316 19.6504 131.541 19.9512C130.766 20.2428 129.868 20.3887 128.848 20.3887H126.373V18.5566ZM126.373 21.127V19.3223H128.848C130.014 19.3223 131.008 19.459 131.828 19.7324C132.658 20.0059 133.332 20.3841 133.852 20.8672C134.371 21.3411 134.749 21.8835 134.986 22.4941C135.232 23.1048 135.355 23.752 135.355 24.4355C135.355 25.3652 135.187 26.1947 134.85 26.9238C134.521 27.6439 134.052 28.2546 133.441 28.7559C132.831 29.2572 132.115 29.6354 131.295 29.8906C130.484 30.1458 129.6 30.2734 128.643 30.2734C127.786 30.2734 126.965 30.1549 126.182 29.918C125.398 29.681 124.696 29.3301 124.076 28.8652C123.456 28.3913 122.964 27.8034 122.6 27.1016C122.244 26.3906 122.066 25.5703 122.066 24.6406H125.361C125.361 25.2331 125.498 25.7572 125.771 26.2129C126.054 26.6595 126.446 27.0104 126.947 27.2656C127.458 27.5208 128.041 27.6484 128.697 27.6484C129.39 27.6484 129.987 27.5254 130.488 27.2793C130.99 27.0332 131.372 26.6686 131.637 26.1855C131.91 25.7025 132.047 25.1191 132.047 24.4355C132.047 23.6608 131.896 23.0319 131.596 22.5488C131.295 22.0658 130.867 21.7103 130.311 21.4824C129.755 21.2454 129.098 21.127 128.342 21.127H126.373ZM141.877 20.7441L139.252 20.1016L140.332 10.0938H151.064V12.8828H143.066L142.52 17.7637C142.829 17.5814 143.258 17.4036 143.805 17.2305C144.352 17.0482 144.976 16.957 145.678 16.957C146.617 16.957 147.455 17.112 148.193 17.4219C148.941 17.7227 149.574 18.1647 150.094 18.748C150.613 19.3223 151.01 20.0241 151.283 20.8535C151.557 21.6738 151.693 22.599 151.693 23.6289C151.693 24.5495 151.557 25.4108 151.283 26.2129C151.019 27.015 150.618 27.7214 150.08 28.332C149.542 28.9427 148.863 29.4212 148.043 29.7676C147.232 30.1048 146.27 30.2734 145.158 30.2734C144.329 30.2734 143.531 30.1549 142.766 29.918C142.009 29.6719 141.33 29.3118 140.729 28.8379C140.127 28.3548 139.644 27.7624 139.279 27.0605C138.915 26.3496 138.705 25.5339 138.65 24.6133H141.877C141.959 25.2604 142.137 25.8118 142.41 26.2676C142.693 26.7142 143.066 27.056 143.531 27.293C143.996 27.5299 144.534 27.6484 145.145 27.6484C145.701 27.6484 146.179 27.5527 146.58 27.3613C146.981 27.1608 147.314 26.8783 147.578 26.5137C147.852 26.14 148.052 25.7025 148.18 25.2012C148.316 24.6999 148.385 24.1439 148.385 23.5332C148.385 22.9499 148.307 22.4167 148.152 21.9336C148.007 21.4505 147.783 21.0312 147.482 20.6758C147.191 20.3203 146.822 20.0469 146.375 19.8555C145.928 19.6549 145.413 19.5547 144.83 19.5547C144.046 19.5547 143.445 19.6686 143.025 19.8965C142.615 20.1243 142.232 20.4069 141.877 20.7441ZM164.285 9.9707H164.695V12.6641H164.463C163.287 12.6641 162.271 12.8464 161.414 13.2109C160.566 13.5755 159.869 14.0768 159.322 14.7148C158.775 15.3529 158.365 16.1003 158.092 16.957C157.827 17.8047 157.695 18.707 157.695 19.6641V22.7949C157.695 23.5879 157.782 24.2897 157.955 24.9004C158.128 25.502 158.37 26.0078 158.68 26.418C158.999 26.819 159.363 27.1243 159.773 27.334C160.184 27.5436 160.626 27.6484 161.1 27.6484C161.592 27.6484 162.038 27.5482 162.439 27.3477C162.84 27.138 163.182 26.8509 163.465 26.4863C163.747 26.1217 163.962 25.6888 164.107 25.1875C164.253 24.6862 164.326 24.1393 164.326 23.5469C164.326 22.9818 164.253 22.4531 164.107 21.9609C163.971 21.4596 163.766 21.0221 163.492 20.6484C163.219 20.2656 162.877 19.9694 162.467 19.7598C162.066 19.541 161.601 19.4316 161.072 19.4316C160.416 19.4316 159.819 19.5866 159.281 19.8965C158.753 20.2064 158.324 20.612 157.996 21.1133C157.677 21.6055 157.504 22.1296 157.477 22.6855L156.219 22.2754C156.292 21.4277 156.479 20.6667 156.779 19.9922C157.089 19.3177 157.495 18.7435 157.996 18.2695C158.497 17.7956 159.076 17.4355 159.732 17.1895C160.398 16.9342 161.127 16.8066 161.92 16.8066C162.886 16.8066 163.725 16.9889 164.436 17.3535C165.146 17.7181 165.734 18.2148 166.199 18.8438C166.673 19.4635 167.024 20.1745 167.252 20.9766C167.489 21.7695 167.607 22.599 167.607 23.4648C167.607 24.4219 167.462 25.3151 167.17 26.1445C166.878 26.9648 166.45 27.6849 165.885 28.3047C165.329 28.9245 164.65 29.4076 163.848 29.7539C163.055 30.1003 162.152 30.2734 161.141 30.2734C160.074 30.2734 159.122 30.0684 158.283 29.6582C157.454 29.248 156.747 28.6829 156.164 27.9629C155.59 27.2428 155.152 26.4134 154.852 25.4746C154.551 24.5358 154.4 23.5423 154.4 22.4941V21.127C154.4 19.6139 154.592 18.1875 154.975 16.8477C155.357 15.4987 155.945 14.3092 156.738 13.2793C157.54 12.2493 158.566 11.4427 159.814 10.8594C161.063 10.2669 162.553 9.9707 164.285 9.9707ZM174.197 10.0938V30H170.766V10.0938H174.197ZM186.16 10.0938L178.094 19.6777L173.5 24.5449L172.898 21.1406L176.18 17.0938L181.977 10.0938H186.16ZM182.469 30L175.92 20.5664L178.285 18.2285L186.543 30H182.469Z" fill="white"/>
<path d="M248.5 10.0254V30H245.205V13.9355L240.324 15.5898V12.8691L248.104 10.0254H248.5ZM268.393 18.3789V21.6328C268.393 23.1914 268.238 24.5221 267.928 25.625C267.627 26.7188 267.189 27.6074 266.615 28.291C266.041 28.9746 265.353 29.4759 264.551 29.7949C263.758 30.1139 262.869 30.2734 261.885 30.2734C261.101 30.2734 260.372 30.1732 259.697 29.9727C259.032 29.7721 258.43 29.4577 257.893 29.0293C257.355 28.6009 256.895 28.0495 256.512 27.375C256.138 26.6914 255.846 25.8757 255.637 24.9277C255.436 23.9798 255.336 22.8815 255.336 21.6328V18.3789C255.336 16.8112 255.491 15.4896 255.801 14.4141C256.111 13.3294 256.553 12.4499 257.127 11.7754C257.701 11.0918 258.385 10.5951 259.178 10.2852C259.98 9.97526 260.873 9.82031 261.857 9.82031C262.65 9.82031 263.38 9.92057 264.045 10.1211C264.719 10.3125 265.321 10.6178 265.85 11.0371C266.387 11.4564 266.843 12.0033 267.217 12.6777C267.6 13.3431 267.891 14.1497 268.092 15.0977C268.292 16.0365 268.393 17.1302 268.393 18.3789ZM265.098 22.0977V17.8867C265.098 17.0938 265.052 16.3965 264.961 15.7949C264.87 15.1842 264.733 14.6693 264.551 14.25C264.378 13.8216 264.159 13.4753 263.895 13.2109C263.63 12.9375 263.329 12.7415 262.992 12.623C262.655 12.4954 262.277 12.4316 261.857 12.4316C261.347 12.4316 260.891 12.5319 260.49 12.7324C260.089 12.9238 259.752 13.2337 259.479 13.6621C259.205 14.0905 258.995 14.6556 258.85 15.3574C258.713 16.0501 258.645 16.8932 258.645 17.8867V22.0977C258.645 22.8997 258.69 23.6061 258.781 24.2168C258.872 24.8275 259.009 25.3516 259.191 25.7891C259.374 26.2174 259.592 26.5729 259.848 26.8555C260.112 27.1289 260.413 27.3294 260.75 27.457C261.096 27.5846 261.475 27.6484 261.885 27.6484C262.404 27.6484 262.865 27.5482 263.266 27.3477C263.667 27.1471 264.004 26.8281 264.277 26.3906C264.551 25.944 264.756 25.3652 264.893 24.6543C265.029 23.9434 265.098 23.0911 265.098 22.0977ZM284.307 18.3789V21.6328C284.307 23.1914 284.152 24.5221 283.842 25.625C283.541 26.7188 283.104 27.6074 282.529 28.291C281.955 28.9746 281.267 29.4759 280.465 29.7949C279.672 30.1139 278.783 30.2734 277.799 30.2734C277.015 30.2734 276.286 30.1732 275.611 29.9727C274.946 29.7721 274.344 29.4577 273.807 29.0293C273.269 28.6009 272.809 28.0495 272.426 27.375C272.052 26.6914 271.76 25.8757 271.551 24.9277C271.35 23.9798 271.25 22.8815 271.25 21.6328V18.3789C271.25 16.8112 271.405 15.4896 271.715 14.4141C272.025 13.3294 272.467 12.4499 273.041 11.7754C273.615 11.0918 274.299 10.5951 275.092 10.2852C275.894 9.97526 276.787 9.82031 277.771 9.82031C278.564 9.82031 279.294 9.92057 279.959 10.1211C280.633 10.3125 281.235 10.6178 281.764 11.0371C282.301 11.4564 282.757 12.0033 283.131 12.6777C283.514 13.3431 283.805 14.1497 284.006 15.0977C284.206 16.0365 284.307 17.1302 284.307 18.3789ZM281.012 22.0977V17.8867C281.012 17.0938 280.966 16.3965 280.875 15.7949C280.784 15.1842 280.647 14.6693 280.465 14.25C280.292 13.8216 280.073 13.4753 279.809 13.2109C279.544 12.9375 279.243 12.7415 278.906 12.623C278.569 12.4954 278.191 12.4316 277.771 12.4316C277.261 12.4316 276.805 12.5319 276.404 12.7324C276.003 12.9238 275.666 13.2337 275.393 13.6621C275.119 14.0905 274.91 14.6556 274.764 15.3574C274.627 16.0501 274.559 16.8932 274.559 17.8867V22.0977C274.559 22.8997 274.604 23.6061 274.695 24.2168C274.786 24.8275 274.923 25.3516 275.105 25.7891C275.288 26.2174 275.507 26.5729 275.762 26.8555C276.026 27.1289 276.327 27.3294 276.664 27.457C277.01 27.5846 277.389 27.6484 277.799 27.6484C278.318 27.6484 278.779 27.5482 279.18 27.3477C279.581 27.1471 279.918 26.8281 280.191 26.3906C280.465 25.944 280.67 25.3652 280.807 24.6543C280.943 23.9434 281.012 23.0911 281.012 22.0977ZM300.221 18.3789V21.6328C300.221 23.1914 300.066 24.5221 299.756 25.625C299.455 26.7188 299.018 27.6074 298.443 28.291C297.869 28.9746 297.181 29.4759 296.379 29.7949C295.586 30.1139 294.697 30.2734 293.713 30.2734C292.929 30.2734 292.2 30.1732 291.525 29.9727C290.86 29.7721 290.258 29.4577 289.721 29.0293C289.183 28.6009 288.723 28.0495 288.34 27.375C287.966 26.6914 287.674 25.8757 287.465 24.9277C287.264 23.9798 287.164 22.8815 287.164 21.6328V18.3789C287.164 16.8112 287.319 15.4896 287.629 14.4141C287.939 13.3294 288.381 12.4499 288.955 11.7754C289.529 11.0918 290.213 10.5951 291.006 10.2852C291.808 9.97526 292.701 9.82031 293.686 9.82031C294.479 9.82031 295.208 9.92057 295.873 10.1211C296.548 10.3125 297.149 10.6178 297.678 11.0371C298.215 11.4564 298.671 12.0033 299.045 12.6777C299.428 13.3431 299.719 14.1497 299.92 15.0977C300.12 16.0365 300.221 17.1302 300.221 18.3789ZM296.926 22.0977V17.8867C296.926 17.0938 296.88 16.3965 296.789 15.7949C296.698 15.1842 296.561 14.6693 296.379 14.25C296.206 13.8216 295.987 13.4753 295.723 13.2109C295.458 12.9375 295.158 12.7415 294.82 12.623C294.483 12.4954 294.105 12.4316 293.686 12.4316C293.175 12.4316 292.719 12.5319 292.318 12.7324C291.917 12.9238 291.58 13.2337 291.307 13.6621C291.033 14.0905 290.824 14.6556 290.678 15.3574C290.541 16.0501 290.473 16.8932 290.473 17.8867V22.0977C290.473 22.8997 290.518 23.6061 290.609 24.2168C290.701 24.8275 290.837 25.3516 291.02 25.7891C291.202 26.2174 291.421 26.5729 291.676 26.8555C291.94 27.1289 292.241 27.3294 292.578 27.457C292.924 27.5846 293.303 27.6484 293.713 27.6484C294.232 27.6484 294.693 27.5482 295.094 27.3477C295.495 27.1471 295.832 26.8281 296.105 26.3906C296.379 25.944 296.584 25.3652 296.721 24.6543C296.857 23.9434 296.926 23.0911 296.926 22.0977Z" fill="white"/>
<line x1="95" y1="4.37114e-08" x2="95" y2="61" stroke="white" stroke-opacity="0.7" stroke-width="2"/>
<line x1="215" y1="4.37114e-08" x2="215" y2="61" stroke="white" stroke-opacity="0.7" stroke-width="2"/>
</svg>
